/* XPM */
static char *ddaa9551897444458eda9fe0e6e9a707bU6BcYM4JBEtUzs5[] = {
/* columns rows colors chars-per-pixel */
"64 64 50 1 ",
"  c #0C111B",
". c #15151D",
"X c #15181F",
"o c #131621",
"O c #161B24",
"+ c #191D26",
"@ c #171E28",
"# c #1B1F29",
"$ c #1D2027",
"% c #1D222B",
"& c #1F2630",
"* c #21252D",
"= c #25292F",
"- c #232631",
"; c #252A33",
": c #292D36",
"> c #272E38",
", c #2B2F39",
"< c #273037",
"1 c #2C3137",
"2 c #2D323B",
"3 c #31353E",
"4 c #2F3640",
"5 c #333641",
"6 c #353943",
"7 c #393C46",
"8 c #373E48",
"9 c #3A3F48",
"0 c #3D434C",
"q c #3F484F",
"w c #3F4650",
"e c #3F4951",
"r c #41454E",
"t c #424651",
"y c #444B54",
"u c #494D56",
"i c #464E58",
"p c #494E59",
"a c #475057",
"s c #475059",
"d c #4B525B",
"f c #51555E",
"g c #4F5660",
"h c #4F5861",
"j c #525661",
"k c #545A63",
"l c #585C67",
"z c #585F69",
"x c #666B76",
"c c #686F79",
/* pixels */
"36635-tjuppppiiiiiiieieissiept585555545566r23653333,:16333333313",
"50937:tjppipiiiiiiiiiiieieeejt4975556555:3u3,,33,13:=37373333636",
"37733*7ppuptyiiiesieiieieeeept495597554433r13633363:*3r6333,3773",
"7r976-rjpuiiyyiiieiieiieiieept49599t7544139,6631333=*37333333777",
"39333*9liiiiyeiiiiiieiiieiywit5959rr5555,6f63113131;*30635757707",
"11:=:$6piiwwyeeieieiiieeieiyit5t57r75555-3r,:=:=**:**3772,:13331",
"73337=0jiiiiwiiyeeeiieiiiyyiit5t77752255$*3*,1=*:;:<;<536:%:31:1",
"33370:0fitwiiiwyeeieiieiyyy8p949975,255,:7kuuufffyadutapd3*30765",
"55555-tpwiwiiiwtieiieieeyyyiu52r32,,3332*rr9ruuuaeaayqqq00663333",
"5,5,5>tptiiwiiwieeeeeiiiyyttt5292,,22232+9r9urrrqqaeayqq0r373131",
"555,5>ijiitiwiiwewyeeiiiytrrr5292,222233+999rrrryqaayyqqrr333163",
"5,555>tlitiwiiiieeeeeeeeiyrt053r:2322223X9rrurrrqaqayayqyr733393",
"55555>tliwwiiiiwieiewyieiy9it73r:222:223$rtrurrrqeeaeaqayy633373",
"5,5,4-tliiiiiiiieiieeieitt9iu73023222::2$turtrrrqeeeqaqquu33311:",
"5,,54&wjiwiiiiwieiieeyy8999iu7373322::2:$rurtrrreeeeyqyyyr33313:",
",,,54&8giiiiiiiwieyw8888989pu71332:122::$tururrtaaeayyrytr333373",
"-,,,,--94<6664336131:311133731113:5353-,+5uutuuuqaaqptpt984444>>",
"##.---:7q08<<437637333=*=$=$$$$$%+*++*#$o:775566441=4->#>%@@@@@@",
"pttujfpjadd31063333333==fuuuuuufurr-*;*O.+---**#==%$55t9t999e8yi",
"f97tputtaaa03611333333:3kuuuuuuufdu5393236777775603<pjljjpigggss",
"u77yiuuyyrq1=33r535133=3fuuuurrur9r66733:,22,,,,66:,fpppiiisieee",
"u39uttdyayy03333225103=7urrruuyrfuu933-;,,32,55,-,%-juitiiihhgss",
"d30uttptrya313==231:33*7uurruuayrrr3:2:222225,,556:,kurr9yesieii",
"d36ytydwryy<=30376:%:=+3fuururrrruu:$332:,,,,-,,,4-:kuttiieiiiis",
"u01yytrturr1yfafdduayy11daqqrrrqtut1131:,,,,,54,5,-5ptttyyyiiiyi",
"ur1yuuuduut1adyydauuaa11hdyaaaaartr13312,,,,,,,,5,-5ptttyyiyyiyi",
"q0=070007771aaqyaataya44ayrryrqqrur313:2,,,,,,,,5-#5ttttwyiiiiei",
"q0$<11:1113=yayayyqyya1<farayyyarur1:2::,,-,,5,,,,#5ttttyyyiiiei",
"e0&33633333:upyayyqyqa<<dayyyqqy7rr,:2:2,,,,,,5,5,-5it9tieeiiiie",
"aq<63603333:uuqayyqaya<<daqqqq80tur226::,,,,55,,,,-7pttteeiiiiii",
"eq<62131313:uutaqrqaaa<<daqqq080rr9:26::,,-,,,,55,-5pt9yeiiiieei",
"0q1036633333uurayyyayq&$61<<<<<<:::$-6:2,-,,,5,,5,-5i9tyyeeiiiii",
"p9455545555,pi9irruuur$$1137577732:*:3,3,,,:122231-5urrrrre0deaa",
"t5,,5,44,35-jptiuurrur3r33335533332=,5;12,,,222211=7urrryrq6aqee",
"p9455548555>ppyy9rrru71r53333333733-33,,1,,,2321<;=6uuurury0hdds",
"t5445544954,ptpprruru71733333333333=13:,2,1222223=$2urru0rr0seeq",
",>&&>&>>-&-&88w8753377=733333353213;15,32,22322,3=X=7333448&3<<4",
"984548845488ew88773777=733333333333:36,32213232,1:X1r333244&<200",
"iiiiiiiigplgzsgeuufffr1733333331556:25,31222332,1=*1r773664&wseg",
"wwwtwyyyt8iwe8iiurrr73=r33335533366:13:32322331,11$17333444&eee0",
"iitwwwiw9eeeeyiwy0rrr61733335333356;511,23222232:1*,75336<5;ptpw",
"wwwwwwwiyyieeewiyrarr71733335555133;5<1,2223211311*:5353525-pyyy",
"wtiiiiiittrt99i900y0r61333335355355:5111,222,,2133*:7555255-urtp",
"wwwwwwwwtttippppyryr061055333333333:723<1212,,,,11*:7553262;piti",
"ttttwittttrt0r00030091*055535555333;723223221,2213$17333555-pput",
"ptttitttuuttr090060yr1=355355575333;76632553221133=17553,5-5tput",
"5,45,,455544,,:;<<61=$X*3,,,5,4432<*63322122,:,:13$=3,,5,-:,4595",
",,55-&-479790tttqaa3<3<3,,--**&&*%%X;-<;,>,;;;;;=1..**--5-:-o#4-",
"55955>tjttttttttiie4ezhigpiii&4i7yahhdyq63211<:<11=3$15535575331",
",5555>tptttt8twt9y948jiiiiiig4tcaaaadddaaaaaaqtyuuuu377335333313",
",5,,5,tpttt8wwwweie48g99999iy&9cqqqqq0yyaeeyqq0tr77u155133111133",
"5,559,tpiittwwwt9ii68py9iiyii48z8qqyqqqyeeqq000r7777=57733311333",
"555,9,tpiiwwwwww9ie48i9wwywti48h0qyyqqyqeyqqrrrrr77r177733333335",
"55555,tpiwiwwwww9we88pwi9e889@4gq00q00qqqqqqrrr9rr7r135111333333",
"555,5,tpwiwwwwwwei948peiigiwi>4gyq00qqyq0qrrrttrrr7r377313333333",
",5555,tpiwiwiwwwww848i9w89yww@487611606160007r977757$35333333333",
"55598@>4>>>>>>>>444>&&&@@&>>&& $===<=====.$$$.$$$$*$.=1:33355333",
"5,,58>tlwiiiiiiipdpieiiihiwigk4&q8076667:*79r79777r5,35333333533",
"55,45>pxiiiiiiiiiddiiidkhgessh42q763613315luurr75775=:3133335533",
"55555-tlwiwiiiiipppywippwyisww<67613333317l7535,:,5,-:5513333333",
"55558>tpiiiiiggiddpipdddyywiya2007377666:rf513553353:37333355333",
"5,5,84ijiiiiiiiiiietpddyiywyyy1673336611=rf5335533,:=13:33335533",
"555,4>wgiggiihhiiiyiidgidpidrr1003779633:7u33313,35,=33333355333",
"55554>ihiiiiiiiiipiiepiddywiyu10733363331ru,5335137,*=3333355333"
};
