/* XPM */
static char *result[] = {
/* columns rows colors chars-per-pixel */
"64 64 248 2 ",
"   c #27110F",
".  c #381A16",
"X  c #2B1412",
"o  c #3C221E",
"O  c #3D2926",
"+  c #48241D",
"@  c #55251E",
"#  c #4C2A25",
"$  c #472723",
"%  c #552C23",
"&  c #582D28",
"*  c #4C3328",
"=  c #5C332A",
"-  c #56352A",
";  c #4D3935",
":  c #583D36",
">  c #642D24",
",  c #672F28",
"<  c #65342B",
"1  c #6B352C",
"2  c #64392D",
"3  c #653427",
"4  c #773A2D",
"5  c #643B34",
"6  c #6C3B32",
"7  c #663733",
"8  c #733D34",
"9  c #7A3D32",
"0  c #723A37",
"q  c #701E15",
"w  c #57423A",
"e  c #4F403A",
"r  c #6B423B",
"t  c #674339",
"y  c #754235",
"u  c #7D4235",
"i  c #7D443B",
"p  c #78483A",
"a  c #7F503E",
"s  c #513E40",
"d  c #594744",
"f  c #585454",
"g  c #574C4C",
"h  c #6D4C43",
"j  c #664A47",
"k  c #734C44",
"l  c #784A44",
"z  c #68524B",
"x  c #75544C",
"c  c #7B5349",
"v  c #685757",
"b  c #775A54",
"n  c #77625C",
"m  c #6E615F",
"M  c #6E5961",
"N  c #6B6364",
"B  c #786767",
"V  c #7B777C",
"C  c #85382C",
"Z  c #873831",
"A  c #973C3A",
"S  c #933D2F",
"D  c #812213",
"F  c #844335",
"G  c #83433A",
"H  c #84493C",
"J  c #8D4C3D",
"K  c #8C4538",
"L  c #924C3E",
"P  c #984A3C",
"I  c #97513E",
"U  c #8D523D",
"Y  c #A84C3B",
"T  c #834C42",
"R  c #884C43",
"E  c #934D42",
"W  c #9A4E44",
"Q  c #944A46",
"!  c #8D5242",
"~  c #8D5C4E",
"^  c #865548",
"/  c #945245",
"(  c #9C5343",
")  c #9C564B",
"_  c #965B4E",
"`  c #9C5B4C",
"'  c #975848",
"]  c #8B5C53",
"[  c #855953",
"{  c #945C51",
"}  c #A25445",
"|  c #A55946",
" . c #AB5C46",
".. c #A2564B",
"X. c #A8554A",
"o. c #A45C4C",
"O. c #AB5C4B",
"+. c #B25E4B",
"@. c #B45A46",
"#. c #A35C52",
"$. c #AB5B51",
"%. c #B35F53",
"&. c #B85E52",
"*. c #A44A45",
"=. c #9C614D",
"-. c #84645D",
";. c #896358",
":. c #9C6253",
">. c #9C6A5B",
",. c #97675A",
"<. c #8F705E",
"1. c #A5614D",
"2. c #AC614C",
"3. c #B4634D",
"4. c #BB634D",
"5. c #BA684D",
"6. c #A46353",
"7. c #AB6453",
"8. c #AC6A56",
"9. c #AC6559",
"0. c #A36B5C",
"q. c #AD6C5C",
"w. c #A46856",
"e. c #B36453",
"r. c #BB6553",
"t. c #B56A55",
"y. c #BB6A54",
"u. c #BB655A",
"i. c #B46C5B",
"p. c #BC6C5B",
"a. c #B5665A",
"s. c #BD715C",
"d. c #B87157",
"f. c #AE715E",
"g. c #8B6C65",
"h. c #866A66",
"j. c #966B62",
"k. c #8A736A",
"l. c #9A7469",
"z. c #887876",
"x. c #957B75",
"c. c #846970",
"v. c #A76E62",
"b. c #B76E61",
"n. c #AC7263",
"m. c #A77568",
"M. c #B37262",
"N. c #BD7363",
"B. c #BB7969",
"V. c #A77B74",
"C. c #B37970",
"Z. c #C26A4E",
"A. c #C2664E",
"S. c #C26652",
"D. c #C36B53",
"F. c #CA6C52",
"G. c #C36D5A",
"H. c #CA6E5B",
"J. c #C3665A",
"K. c #C57254",
"L. c #CB7255",
"P. c #C3725D",
"I. c #CC725C",
"U. c #C87B5E",
"Y. c #D1755C",
"T. c #D2795E",
"R. c #C46C62",
"E. c #C37463",
"W. c #CD7462",
"Q. c #C57A63",
"!. c #CB7A64",
"~. c #C47B6C",
"^. c #CB7B6B",
"/. c #CB7669",
"(. c #D17564",
"). c #D37B65",
"_. c #D37C6B",
"`. c #DA7E6E",
"'. c #C67E71",
"]. c #D37F72",
"[. c #D97E71",
"{. c #B2877D",
"}. c #B28375",
"|. c #93807C",
" X c #C6816E",
".X c #CC856C",
"XX c #CC896E",
"oX c #CF8061",
"OX c #D58165",
"+X c #D4836B",
"@X c #D9836C",
"#X c #D7866A",
"$X c #CB8573",
"%X c #C88773",
"&X c #D48372",
"*X c #D98373",
"=X c #D48B74",
"-X c #DD8B7A",
";X c #D78A78",
":X c #DB9279",
">X c #E1907D",
",X c #99898A",
"<X c #97939A",
"1X c #948A8D",
"2X c #A68B8A",
"3X c #A6938D",
"4X c #A99997",
"5X c #B1908E",
"6X c #A89CA4",
"7X c #ADA5AC",
"8X c #B5A9A9",
"9X c #B6ABB4",
"0X c #BAB3B6",
"qX c #BFB3AE",
"wX c #BAA195",
"eX c #D99484",
"rX c #C19990",
"tX c #D8A296",
"yX c #C4B4AD",
"uX c #C7BAB9",
"iX c #E4B2A6",
"pX c #E1C4BE",
"aX c #DDC4BE",
"sX c #C7BFC5",
"dX c #CAC5C9",
"fX c #D4CACA",
"gX c #DCDADC",
"hX c #D8D4D8",
"jX c #D1CCD1",
"kX c #E6DDDC",
"lX c #F1DFD9",
"zX c #DCDDE1",
"xX c #E1DFE1",
"cX c #F0DFE0",
"vX c #E3E2E4",
"bX c #EAE5E5",
"nX c #E5E4E9",
"mX c #EDEAEA",
"MX c #E8E6E8",
"NX c #F1EDED",
"BX c #F0E6E5",
"VX c #F0EFF2",
"CX c #F5F4F5",
"ZX c #FEFEFE",
"AX c #F7F6F8",
"SX c #F3F1EF",
"DX c #E8E2DF",
"FX c None",
/* pixels */
"FXFXFXFXFXFXFXFXFXFXFXFXFXFXFXFXFXFXFXFXFXFXZXZXZXZXZXZXZXZXZXZXZXZXZXFXFXFXFXFXFXFXFXFXFXFXFXFXFXFXFXFXFXFXFXFXFXFXFXFXFXFXFXFX",
"FXFXFXFXFXFXFXFXFXFXFXFXFXFXFXFXFXFXFXZXZXZXZXAXCXBXBXDXkXDXBXSXAXAXZXZXZXZXZXFXFXFXFXFXFXFXFXFXFXFXFXFXFXFXFXFXFXFXFXFXFXFXFXFX",
"FXFXFXFXFXFXFXFXFXFXFXFXFXFXFXFXFXFXZXAXMXhXfXuXqX8XqXyXyXyXyXyXuXuXfXfXxXVXZXZXZXFXFXFXFXFXFXFXFXFXFXFXFXFXFXFXFXFXFXFXFXFXFXFX",
"FXFXFXFXFXFXFXFXFXFXFXFXFXFXFXFXZXZXAXjX9X8X4X4X4X3X3X3X5X4X4X3X3X4X4XwX8X9XhXAXZXZXZXZXFXFXFXFXFXFXFXFXFXFXFXFXFXFXFXFXFXFXFXFX",
"FXFXFXFXFXFXFXFXFXFXFXFXFXFXFXZXZXvXsX7X7X,Xz.k.k.g.g.g.g.k.l.x.x.x.x.|.,X,X4XdXCXZXZXZXZXZXFXFXFXFXFXFXFXFXFXFXFXFXFXFXFXFXFXFX",
"FXFXFXFXFXFXFXFXFXFXFXFXFXFXZXAXdX9X6X1Xk.n x x ^ [ [ [ ;.~ ,.<.<.<.g.n ;.-.V <XdXzXnXVXZXZXZXFXFXFXFXFXFXFXFXFXFXFXFXFXFXFXFXFX",
"FXFXFXFXFXFXFXFXFXFXFXFXFXZXVX0X4X<Xk.n x c U _ _ _ _ ' =.>.0.,.|.rXwXk.-.-.b B |.1X4X0XhXAXZXZXFXFXFXFXFXFXFXFXFXFXFXFXFXFXFXFX",
"FXFXFXFXFXFXFXFXFXFXFXFXZXgX7X1Xz.g.c ^ ~ =.=.8.6.6.6.` ` 6.9.6.}.%XwX}.>.>.,.;.n N k.,X4XsXAXZXFXFXFXFXFXFXFXFXFXFXFXFXFXFXFXFX",
"FXFXFXFXFXFXFXFXFXFXFXZXgX<Xz.m v a a =.1.1.=.1.7.8.1.7.1.1.2.2.=.1.8.w.w.8.w.>.~ b z n k.|.fXZXZXFXFXFXFXFXFXFXFXFXFXFXFXFXFXFX",
"FXFXFXFXFXFXFXFXFXFXZXxX1XB z d t U =.5.5.d.5.t.t.5.2.3.e.3.3.3.2.2.1.1.8.d.8.f.0.~ t w z n |.vXZXFXFXFXFXFXFXFXFXFXFXFXFXFXFXFX",
"FXFXFXFXFXFXFXFXFXZXAX6Xm g d ; a 1.5.y.5.d.5.5.K.Z.Z.Z.Z.Z.A.A.A.5.3.5.y.i.d.i.f.0.~ t t v v 7XZXZXFXFXFXFXFXFXFXFXFXFXFXFXFXFX",
"FXFXFXFXFXFXFXFXFXZXgXN j e * 2 ' d.K.Z.5.K.L.L.L.L.L.L.L.F.F.F.Z.A.4.5.4.r.t.i.d.d.=.a w w z k.hXZXFXFXFXFXFXFXFXFXFXFXFXFXFXFX",
"FXFXFXFXFXFXFXFXFXZX<Xe d e - U d.K.K.K.L.L.T.T.T.T.T.Y.F.L.F.F.F.F.S.A.4.4.4.t.d.q.q.:.p w d z 4XAXZXFXFXFXFXFXFXFXFXFXFXFXFXFX",
"FXFXFXFXFXFXFXFXZXmXf e w w p 5.U.K.K.K.L.oXT.T.T.T.T.T.Y.Y.Y.F.F.F.F.S.S.4.4.3.e.8.9.f.,.r w d B jXZXZXFXFXFXFXFXFXFXFXFXFXFXFX",
"FXFXFXFXFXFXFXFXZXjXe e e t :.oXoXU.oXoXoXoXOXOXOX@XOX).T.T.Y.T.L.F.F.S.S.A.4.3.O.2.7.q.m.b t ; d 7XZXZXFXFXFXFXFXFXFXFXFXFXFXFX",
"FXFXFXFXFXFXFXFXZX<Xe w w c f.oX.X.XXXoXOX#X@XOXOXOXOXOXT.T.T.I.L.L.D.S.S.A.4.+.+.O.o.w.m.l.h : * V CXZXFXFXFXFXFXFXFXFXFXFXFXFX",
"FXFXFXFXFXFXFXZXCXV e d t f.Q..XXXXXXXXXXX#X#X#X+X@X).).T.T.I.I.I.L.G.S.S.4.4.+. .| | #.m.{.j.j * f MXZXFXFXFXFXFXFXFXFXFXFXFXFX",
"FXFXFXFXFXFXFXZXnXf d z ~ }.XXXXXX XXXXX#XXX#XXX@X@X).).).W.(.W.I.I.I.D.F.S.4.+.@.O.o.` w.C.{.b j N vXZXFXFXFXFXFXFXFXFXFXFXFXFX",
"FXFXFXFXFXFXFXZXxXg g b m..XXXXXXX.XXXXX=X=X=X=X+X+X+X_.).W.W.W.I.I.I.H.H.H.r.r.3.| | | ` v.{.l.z V gXZXFXFXFXFXFXFXFXFXFXFXFXFX",
"FXFXFXFXFXFXFXZXgXf N -.0.}. X.X%X%XXX=X:X=X=X#X=X=X+X+X+X_.W.I.W.H.H.H.J.D.S.4.@.3.| | =.0.m.l.x B hXZXFXFXFXFXFXFXFXFXFXFXFXFX",
"FXFXFXFXFXFXFXZXzXf N n >.B.~. X$X X X$X=X;X;X;X*X&X+X_.).).W.H.H.W.H.W.H.H.r.r.3.3. . .` :.>.j.x B gXZXFXFXFXFXFXFXFXFXFXFXFXFX",
"FXFXFXFXFXFXFXZXzXN B n v.N.N.~.~. X X].$X$X&X$X$X+X&X&X_._.W.W.W.H.R.H.H.H.D.4.3. . .| ` :.,.;.x v vXZXFXFXFXFXFXFXFXFXFXFXFXFX",
"FXFXFXFXFXFXFXZXzXN M h.m.b.N.N.~.~.'.'.^.'.$X&X&X&X&X[._._.(.(.(.Y.(.I.H.H.H.A.3.3.@.O.` _ ] ~ h m MXZXFXFXFXFXFXFXFXFXFXFXFXFX",
"FXFXFXFXFXFXFXZXzXf v h.l.q.N.E.~.^.~.^.^.^.^.].^.&X_.`._._.(.(.(.(.`.(.I.I.G.S.4.e.O.` ` :.~ T r v vXZXFXFXFXFXFXFXFXFXFXFXFXFX",
"FXFXFXFXFXFXFXZXvXf v B j.v.b.p.P.E.Q./._.].^.].$X&X&X[._._.(._._.(.`.`.Y.H.H.G.p.7.^ 5 r ] [ H k v xXZXFXFXFXFXFXFXFXFXFXFXFXFX",
"FXFXFXFXFXFXFXFXCXV g M g.v.b.G.s.s.E.!.^.^._.].&X&X*X*X&X@X_.).(.(.(.(.Y.H.J.u.' r & $ $ r ] ^ h N nXZXZXFXFXFXFXFXFXFXFXFXFXFX",
"FXFXFXFXFXFXFXFXZX0Xg z -.0.d.y.y.p.P.E.W.W.!..X&X*X-X-X-X*X!.).F.I.Y.H.L.1.J 8 # o o o # 5 [ [ x N sXxXZXZXFXFXFXFXFXFXFXFXFXFX",
"FXFXFXFXFXFXFXFXZXcXB z -.,.8.y.y.y.P.W._.^.i.=.6.M.i.9.v.9.p.P.u.I.H.S.1.y + o . . o # 7 0 k [ b b l.C.fXZXFXFXFXFXFXFXFXFXFXFX",
"FXFXFXFXFXZXZXZXZXAX3Xj -.,.7.p.y.y.P.U.^.b.! 2 5 = @ @ & 4 H 1.3.K.A.3./ > @ + = 0 0 = % = 0 [ h j [ S 2XAXZXFXFXFXFXFXFXFXFXFX",
"FXFXFXFXZXAXbXlXcXSXuXh.j.,.8.s.p.s.s.N.9.! p = # + . . . + > K o.D.Z. .4 = 1 9 T c 5 = 2 6 8 R j j i D 2XAXZXFXFXFXFXFXFXFXFXFX",
"FXFXFXFXZXcXtXeXtXiXtXV.j.;.6.G.P.P.P.f./ U y = 2 k [ i > 3 4 U O.Z.G.I > 4 K 9.{.V.V.5 @ y i ^ k : 6 q 2XZXFXFXFXFXFXFXFXFXFXFX",
"FXFXFXFXZXpX@.X.C.'.eX%X{ [ 6.P.G.P.P.1.U J y a k l.5X5X;.C I Y 3.K.L.} C W %.'.] * c ] 6 4 H _ j.0 , > uXZXFXFXFXFXFXFXFXFXFXFX",
"FXFXFXFXZXpXY Y y.!.^.$X>.^ w.p.G.P.P.1.( U F 9 c c - c w.| 3. .5.OX).4.L } +.3.H = y 9 F J U ` m.^ & c mXZXFXFXFXFXFXFXFXFXFXFX",
"FXFXFXFXZXcX%.S @.OX=XQ.9._ f.E.!.U.s.8.1.L / | 6.c : G } | 2.3.T.-X@XK.I U } I P F u F E ` =.o.w.i @ 2XZXFXFXFXFXFXFXFXFXFXFXFX",
"FXFXFXFXZXCXV.C } L.p.e.M.v.n.!._.!.P.y.O.2.t.1.} P K W I } t.P.+X*X:X!.| J P P } I ( | o.#.2.` ' 4 , fXZXFXFXFXFXFXFXFXFXFXFXFX",
"FXFXFXFXFXZX8X9 K Y S } '.B.q.E.Q.!.P.P.P.s.y.y.e.+. .X.} 3.P.!.@X:X:X).1./ ( | O.2.2.+.e.e.6._ R , 1 xXZXFXFXFXFXFXFXFXFXFXFXFX",
"FXFXFXFXFXZXMX;.4 F I D.+X XM.i.t.P.P.P.Q.W.Q.E.G.e.+.%.r.E.W.+XOX;X:X`.y.' ..e.u.4.+.r.e.e.o./ T > l MXZXFXFXFXFXFXFXFXFXFXFXFX",
"FXFXFXFXFXFXZXhX<.p } u.XX Xn.6.9.t.p.u.I.!.!.Q.P.G.P.P._.`.+X).#X:XeX@Xs.1.} S.H.J.r.+.O.| ' R 0 , ;.NXZXFXFXFXFXFXFXFXFXFXFXFX",
"FXFXFXFXFXFXFXZXkXl.( t.Q.B.M.9.7.e.y.p.G.E.I.P.P.^._.].`.*X*X!.+X:XeX>X/.7./ u.H.J.u.u.$.( R l 6 < x.AXZXFXFXFXFXFXFXFXFXFXFXFX",
"FXFXFXFXFXFXFXFXZXyX:.i.N.t.i.9.7.9.e.e.r.p.u.u./.].*X].[.[.^.].+X=X-X-X_.p.o.O.G.J.u.%...E H 0 1 < ,XAXZXFXFXFXFXFXFXFXFXFXFXFX",
"FXFXFXFXFXFXFXFXZXkXm.M.}.Q.q.6.6.9.7.o.O.O.+.e.p./.].*X[.[./.].XX;XeXeX].b.Q P u.J.e.X.W E i 7 3 = ,XZXFXFXFXFXFXFXFXFXFXFXFXFX",
"FXFXFXFXFXFXFXFXZXBX{.n.n.B.n.{ { #.9.7.$.O...X.%.R./.[.[.W.R.a.L ) ~.;XR.Q , Z &.u.e.X.` E 0 & # z.jXZXFXFXFXFXFXFXFXFXFXFXFXFX",
"FXFXFXFXFXFXFXFXZXbXV.j.>.,.;.d k W $.9.$.7.%.a.u.b./._.(.(.].b.) Q Q #.Q 0 , Q $.e.a.$.` H < & |.MXZXZXFXFXFXFXFXFXFXFXFXFXFXFX",
"FXFXFXFXFXFXFXFXFXCX5Xc l k h 1XM l ` 9.e.e.r.R.E.N./.(.R.[.*X$XC.C.#.G 1 0 9 ) ..X.%...R 0 & v vXZXFXFXFXFXFXFXFXFXFXFXFXFXFXFX",
"FXFXFXFXFXFXFXFXFXZXkXB h r h.xX<Xj / 9.e.7.r.p.E.E./.E.'.$X$X'.$X~.9.#.) / / ) ..( ) ` H 2 & 4XZXFXFXFXFXFXFXFXFXFXFXFXFXFXFXFX",
"FXFXFXFXFXFXFXFXFXFXZXzXuX0XhXZXsXj ^ #.9.e.p.b.E.~.~.N.~.'.B.'.~.R.$.#.9.#.#.` ) / / ` i 3 h fXZXFXFXFXFXFXFXFXFXFXFXFXFXFXFXFX",
"FXFXFXFXFXFXFXFXFXFXFXZXZXZXZXZXxXM l ) 7.e.u.E.~.^.R.N.N.b.b.i.b.a.#.) $.#.) / G u J ..u 3 ,XCXZXFXFXFXFXFXFXFXFXFXFXFXFXFXFXFX",
"FXFXFXFXFXFXFXFXFXFXFXFXFXFXFXFXAX1X5 T #.7.i.N.~.~.p.i.6.6.7.$.e.a.7.a.9.Q Z 0 & , W | y t dXZXFXFXFXFXFXFXFXFXFXFXFXFXFXFXFXFX",
"FXFXFXFXFXFXFXFXFXFXFXFXFXFXFXFXZXdXk 0 R 9.i.s.Q.W.t.( i H Q Q A A A A Z Z 4 9 u R o.) 2 k kXZXFXFXFXFXFXFXFXFXFXFXFXFXFXFXFXFX",
"FXFXFXFXFXFXFXFXFXFXFXFXFXFXFXFXZXmXc.0 9 ' e.y.E.E.5.I ' 8.a.u.R.u.$.*.*.$...E E / o.K & n NXZXFXFXFXFXFXFXFXFXFXFXFXFXFXFXFXFX",
"FXFXFXFXFXFXFXFXFXFXFXFXFXFXFXFXFXZX6Xp H H o.8.i.y.5.3.s.y.p.p.b.%.W W *.Q K J L ( / 1 * wXZXFXFXFXFXFXFXFXFXFXFXFXFXFXFXFXFXFX",
"FXFXFXFXFXFXFXFXFXFXFXFXFXFXFXFXFXZXhXc F P ! ' 2.3.+.y.p.t.X.( Q A K Q Q Z K W ( L u % z vXZXFXFXFXFXFXFXFXFXFXFXFXFXFXFXFXFXFX",
"FXFXFXFXFXFXFXFXFXFXFXFXFXFXFXFXFXFXAX,Xy L U U ' 2.+.S.K.y.3. .W W ..X.|  .O.X.E 9 & + 4XZXFXFXFXFXFXFXFXFXFXFXFXFXFXFXFXFXFXFX",
"FXFXFXFXFXFXFXFXFXFXFXFXFXFXFXFXFXFXZXjXk 9 L L U _ 7.5.Z.y.J.y.G.b.b.a.e.3.+.( u = . b bXZXFXFXFXFXFXFXFXFXFXFXFXFXFXFXFXFXFXFX",
"FXFXFXFXFXFXFXFXFXFXFXFXFXFXFXFXFXFXZXAX3X7 u L U i ^ o.e.5.G.H.G.t.%.$. .| W T = . d fXZXFXFXFXFXFXFXFXFXFXFXFXFXFXFXFXFXFXFXFX",
"FXFXFXFXFXFXFXFXFXFXFXFXFXFXFXFXFXFXFXZXbXx.1 F K a r i ) t.r.%.O.( W ( W E 9 = $ z fXZXFXFXFXFXFXFXFXFXFXFXFXFXFXFXFXFXFXFXFXFX",
"FXFXFXFXFXFXFXFXFXFXFXFXFXFXFXFXFXFXFXFXZXvX-.< 4 i y 6 y T / ( Q F 0 p 0 7 & $ B kXZXFXFXFXFXFXFXFXFXFXFXFXFXFXFXFXFXFXFXFXFXFX",
"FXFXFXFXFXFXFXFXFXFXFXFXFXFXFXFXFXFXFXFXFXZXfXc = < 2 2 - # & # # + $ $ # o . v vXZXFXFXFXFXFXFXFXFXFXFXFXFXFXFXFXFXFXFXFXFXFXFX",
"FXFXFXFXFXFXFXFXFXFXFXFXFXFXFXFXFXFXFXFXFXFXZXfXg.< = & # $ .         X X   O 0XZXFXFXFXFXFXFXFXFXFXFXFXFXFXFXFXFXFXFXFXFXFXFXFX",
"FXFXFXFXFXFXFXFXFXFXFXFXFXFXFXFXFXFXFXFXFXFXFXZXNXuX2Xx.x.c.h w ; ; ; z m z.8XCXZXFXFXFXFXFXFXFXFXFXFXFXFXFXFXFXFXFXFXFXFXFXFXFX",
"FXFXFXFXFXFXFXFXFXFXFXFXFXFXFXFXFXFXFXFXFXFXFXFXZXZXZXAXAXAXNXNXmXMXmXCXAXZXZXZXFXFXFXFXFXFXFXFXFXFXFXFXFXFXFXFXFXFXFXFXFXFXFXFX",
"FXFXFXFXFXFXFXFXFXFXFXFXFXFXFXFXFXFXFXFXFXFXFXFXFXFXFXFXFXFXFXFXFXFXFXFXFXFXFXFXFXFXFXFXFXFXFXFXFXFXFXFXFXFXFXFXFXFXFXFXFXFXFXFX",
"FXFXFXFXFXFXFXFXFXFXFXFXFXFXFXFXFXFXFXFXFXFXFXFXFXFXFXFXFXFXFXFXFXFXFXFXFXFXFXFXFXFXFXFXFXFXFXFXFXFXFXFXFXFXFXFXFXFXFXFXFXFXFXFX",
"FXFXFXFXFXFXFXFXFXFXFXFXFXFXFXFXFXFXFXFXFXFXFXFXFXFXFXFXFXFXFXFXFXFXFXFXFXFXFXFXFXFXFXFXFXFXFXFXFXFXFXFXFXFXFXFXFXFXFXFXFXFXFXFX"
};
