/* XPM */
static char *b5a23f8dae5c40b3f402005b0703ef9egUuNPQgw7sI2X8cH[] = {
/* columns rows colors chars-per-pixel */
"64 64 137 2 ",
"   c #0D0E13",
".  c #0C1117",
"X  c #101116",
"o  c #15161C",
"O  c #16181D",
"+  c #1A1B1F",
"@  c #171B21",
"#  c #1B1C23",
"$  c #1E1E28",
"%  c #1E2026",
"&  c #1E2229",
"*  c #212226",
"=  c #24252B",
"-  c #26282E",
";  c #292A2E",
":  c #262A31",
">  c #2B2D33",
",  c #2F2F39",
"<  c #2E3036",
"1  c #2E3239",
"2  c #313236",
"3  c #33353B",
"4  c #36383D",
"5  c #393A3E",
"6  c #343641",
"7  c #363A41",
"8  c #3C3D43",
"9  c #3E3F49",
"0  c #3E4145",
"q  c #3E4249",
"w  c #414246",
"e  c #43454B",
"r  c #46494D",
"t  c #494A4E",
"y  c #444750",
"u  c #464A51",
"i  c #4B4D53",
"p  c #4C4F58",
"a  c #4E5056",
"s  c #4E5158",
"d  c #4F5259",
"f  c #4D515A",
"g  c #4E515A",
"h  c #4F525B",
"j  c #4D5059",
"k  c #4F545A",
"l  c #4E5259",
"z  c #505156",
"x  c #515257",
"c  c #505457",
"v  c #515256",
"b  c #505358",
"n  c #525358",
"m  c #50535A",
"M  c #515459",
"N  c #505559",
"B  c #535459",
"V  c #525659",
"C  c #54555A",
"Z  c #55565B",
"A  c #50535C",
"S  c #51545D",
"D  c #52555C",
"F  c #54575C",
"G  c #56575C",
"H  c #54575E",
"J  c #53555B",
"K  c #55595C",
"L  c #55585D",
"P  c #57585D",
"I  c #565A5D",
"U  c #55585F",
"Y  c #56595E",
"T  c #575B5E",
"R  c #575A5F",
"E  c #565B5F",
"W  c #56585E",
"Q  c #58595E",
"!  c #595A5E",
"~  c #595A5F",
"^  c #585C5F",
"/  c #595A5E",
"(  c #545760",
")  c #555760",
"_  c #545861",
"`  c #555861",
"'  c #565960",
"]  c #575A61",
"[  c #565B61",
"{  c #555962",
"}  c #575A63",
"|  c #575C60",
" . c #575C62",
".. c #575B64",
"X. c #565A61",
"o. c #585B60",
"O. c #5A5B60",
"+. c #585B62",
"@. c #595C61",
"#. c #5B5C61",
"$. c #5A5E61",
"%. c #5A5D62",
"&. c #5B5F62",
"*. c #5B5E63",
"=. c #5C5D62",
"-. c #5C5F64",
";. c #5B5D63",
":. c #5C6063",
">. c #5D6164",
",. c #5D6065",
"<. c #5F6065",
"1. c #5E6265",
"2. c #5F6366",
"3. c #5F6267",
"4. c #5E6066",
"5. c #5E6168",
"6. c #5F6269",
"7. c #5E6269",
"8. c #616266",
"9. c #60636A",
"0. c #616568",
"q. c #636469",
"w. c #626669",
"e. c #63676A",
"r. c #64656A",
"t. c #65666A",
"y. c #65666B",
"u. c #66676C",
"i. c #63656B",
"p. c #65696C",
"a. c #666A6D",
"s. c #65686D",
"d. c #696A6E",
"f. c #686C6F",
"g. c #696B6E",
"h. c #666970",
"j. c #6B6D74",
/* pixels */
"e.a.a.e.f.f.a ; r q 5 4 5 0 0 0 5 w 5 * 2 8.t.! ! =.! G G G ! G ! P Z Z ! w 2 #.&.D ' ' ' .._ u : t t q 4 4 E E E | | | | E E k ",
"1.e.1.&.w.w.t ; r r 0 0 w w 0 0 w w w ; 2 C ! G B C C B B G G G C z z i v 8 > n D f h k h D h y & q r r 0 4 N N N N u u k f k k ",
"&.:.&.^ >.1.r - 0 q q w r r 0 0 8 w e > ; w z n z v v z v B B B z i t t v 5 ; t k u a i u p h e : q r r 4 : q c c c u N f k f q ",
"&.1.&.^ >.>.t < 5 0 q w 0 0 5 0 8 w t 2 > w t z v v z z t z z B t i t w i 8 ; i j u u i u h h y < r u c 0 < q c q u r u q k q q ",
"&.*.-.o.-.-.i 3 7 r r 0 r 0 4 0 5 8 8 2 2 w e z B B v v z t t t r i i r i 5 > a f i i u j h h u - 0 q K 0 ; 0 t k q q f k k f q ",
"' &.-.*.-.&.u 3 0 0 r 0 r 0 5 5 5 5 5 ; 2 e e e v v z v v t w t q r i r t 5 > a f i a a p D h u 4 t q c 0 ; q q q f q q q q f q ",
"F o.-.o.;.F r 2 0 0 0 0 r 0 0 0 5 5 5 ; 2 w e w t t t z z t w t r i t r t 4 < a a i a f j h h y @ 4 < 1 & O < < 7 1 1 1 6 6 6 6 ",
"F o.-.&.&.D e 1 0 r 0 0 r r 0 0 5 w w 2 2 t t w w 8 w z z t t t t t r q i 0 < t k i f f h h h y - t I a.2.c | c : 1 6 q q q 7 6 ",
"f 6.7. .9...q 6 7 0 q q r q 1 1 2 e 8 ; 2 w z t t w i t z i w t q q c c q 0 & 0 | N c c p f _ u * ~ d.r.u.q.q.#.q 1 q 1 7 1 9 , ",
"i 7.7. ...q 0 6 1 7 4 0 q q 7 1 2 5 3 2 3 8 w w w w i i z z t x t t 0 r 0 4 ; t K N N N f _ f q = B =.~ <.#.<.#.0 : 1 : 6 1 6 : ",
": q q q q q q 6 < : & : 7 7 1 1 ; 2 > > 5 5 2 2 3 5 5 5 5 5 > 5 < < < 2 1 4 : q k u N N f f f q , C #.#.<.#.#.<.q 6 6 6 9 , 6 3 ",
"1 q _ q k _ q f c 0 1 1 q r r u 8 e e t z e 5 5 5 5 w 8 5 3 ; 2 w.p.1.w.2.$.0 c N i k k p _ ..k = t z #.u.#.#.#.q 6 1 1 7 , 6 , ",
"7 _ :._ ...._ ....f q q N  .E E t C Z G ! G w 3 w w i t t w 2 5 f.a.1.w.0.^ < < N k k k p k _ k = e z #.d.<.<.q.i , , 6 9 , 6 , ",
": q f q f q q f f q 6 q N E f f w i z t v t 8 2 2 3 w w t w 3 w ^ ^ c K &.$.< < 0 0 q q 7 0 7 1 + 5 8 w t e e e 6 = ; ; 6 > 6 > ",
"1 f S f _ _ f _ f q 0 q [ [ q q i v z v v t 5 5 5 5 8 w t t 8 w a.a.^ ^ $.T < < 1 1 0 q 6 7 6 : 2 C ! G O.B z B B y p t A p ) i ",
": q f q f _ q f _ q 0 q q k q q B t t v t 5 2 5 w 5 w 5 t t 3 5 K 1.^ ^ T $.4 4 q q q i q q q q + t C G =.G ) B C z ) p A p ) i ",
"6 q y y _ y f f t t 3 8 i t t x n n G w t z ; 3 5 t 8 2 w 5 2 5 =.<.! ! 8.Z 8 3 w 5 5 8 5 5 w w * 5 B C p p p p i i u u a j u e ",
"6 q y y f f f f t t 2 5 n n z z i i z 8 t t = 2 2 8 3 2 3 5 2 3 <.8.8.t.d.=.t 5 w 8 w w 8 8 w w * 8 x C p i i i i i i u i i a u ",
"6 y f y y f f f w t 5 5 9 8 9 w t w t 8 t w * > 8 5 5 5 3 5 5 2 O.<.=.=.8.x 5 > 8 w 8 8 w w 8 8 = 6 t i u y 9 9 q e u u u j j i ",
"6 y f y q y y y 2 r 2 2 4 3 8 9 8 4 8 5 w 8 ; 2 2 * > 5 2 2 2 ; t t t t i 8 > * ; > * + ; = * ; $ ; 3 6 6 3 , : $ : 1 7 8 0 0 7 ",
"6 j _ q y y q y t w 2 2 c ! c c O.n P <.t.8.G ! z 2 w 8.#.Z #.P Z #.O.<.t.<.Z n i v 5 2 t e 8 x ) O.} ..5.-.} ) j _ ..-.,.7.-...",
": q f f f y q y c t 2 5 ! ! ! ! x z x P #.O.P G t 2 5 8.<.P <.#.v Z Z Z <.=.! #.! ! 5 5 G t w q.u.u.h.i.h.h.h.h.j.j.j.s.7.6.7.7.",
": 9 f f f j y f t t 5 w V v c V x x z x z n G t w 2 5 t z z x z Z O.! Z ! Z n Z n v 2 3 #.r 3 8.;.;.} ;.;...9...h.h.6.*...7...D ",
"1 6 q q f q q j v w ; 5 ! V c V z n z i t t z w w 2 3 w t B Z z v Z x v Z n z Z n z 2 8 u.t 2 q.;.} ;.5.-.9.9.9. ...*.5.6.6.,.h ",
"& 1 q q N q q c q 0 : 4 c t c c z n t w z v t B i = 5 w t B e z t Z t t P B t Z G B 4 5 =.q.3 Z 6.;.D s.s.*.s.7.s.*.-.6.-.6.-.( ",
"q 6 6 q E q q N E q : 5 c c c c t z e t v z t Z t = w t z P t B z x t t v z t Z i B 5 3 ! t.w w h.h.-.9..._ 6.5.*...-.9.6.6.-.( ",
"q q 6 q c c r c c 0 * < t c c t z z t z Z t t v 8 ; 8 i z B t t i i z v B z z B i ! w 2 G t.! 5 -.6._ ....' 7._ ..' -.5...-.-.{ ",
"6 q q q q E E N c 0 * < t c t t t t t z v z z Z 5 ; w B B ! B B v t i B i t B P G =.e 2 z =.u.w ..h.s.u.h.5.s.5.*.' ..' { -.-.{ ",
"& q q 1 1 q q q 0 4 + - 4 4 5 5 w w w w 8 8 8 5 = + ; 5 5 5 w 5 5 5 5 5 5 5 w 8 w w 2 ; 5 8 v 3 3 u j j u q i D i y e u u i u 8 ",
"& : : & : 1 : < ; ; + + - * ; ; * + * = * = * $ 2 ; 2 3 2 2 2 ; * 2 w t t w 2 * ; 2 > 2 5 5 w 5 , , # : q q q e y e u u p p q : ",
"1 1 1 : 7 7 4 1 4 0 < 2 5 2 4 5 2 $ 2 z #.<.8.8.q.#.#.8.P P P w 2 z =.8.j.8.8 ; e r t i B Z t K D q & 3 s.h.*. .D D ' ..' *.p 6 ",
"& q q 0 0 q q 7 0 q 0 r t w 0 w t ; 5 u.j.<.<.8.=.P P 8.#.<.<.z w ! B t B Z 5 ; i z i a v #.e &.j y 1 q ,.f u h a i i u y u e 3 ",
"; 5 w w w 5 5 5 w w w 5 e 9 9 9 w ; 8 8.O.#.t.z Z =.P Z P =.o.Z 5 z D e H ..7 1 ) i e z n ) z t 9 n = y H k k N u i k k k q q 0 ",
"; 2 5 5 5 5 w w w w 5 3 8 w 9 t > = w <.#.#.#.<.=.<.#.=.=.#.=.K , t ..i u *.u 1 ) p z ) n z t e 9 z , 9  . .l i p i q k k f q 0 ",
"2 5 5 5 5 5 5 w w 5 5 , 5 w 9 e 2 + , i #.u.! #.P =.=.P P ! ! F , 6 F D q f i 1 =.) ) Z y 9 8 6 y p = 6 k H H D i i k k k [ q 0 ",
"5 5 w w 5 5 5 5 5 5 5 5 9 w 8 9 t = 5 t n t.#.! =.=.o.=.=.=.#.&.8 8 D ' i u q 3 z t t t 9 9 e i y p , , u H _ ' i k i q q q q 0 ",
"2 5 w w w w w 5 3 5 5 w e 9 8 8 w * w z 5 r P ! P P Z P ^ #.8.1.1 q S k ' h 1 - t e 9 9 e y i B t x 6 > y p p n k N f i [ k q q ",
"; 2 5 w w w w w , 5 3 , 8 8 5 8 ; o 2 z w r 8.! P B z Z #.8.#.#.& u [ q &.*.1 @ ) G C ) ) n i i ) x 3 $ 8 w y F k k N i k k q q ",
"* ; 2 5 5 5 5 3 ; , ; ; , , , , ; = # w B i =.G G i r i ^ #.! B 1 q S i h _ 8 & 9 9 t ) O.) G ) ) y , @ 7 8 e A f k k f k  .k q ",
"* ; ; ; ; ; ; * = ; ; ; ; , ; , + 3 X = w % ; 5 5 ; = ; 3 5 3 2 q & 1 7 1 , = # 6 6 9 e e t y z y , - $ p u 7 9 f E _ f k  .q q ",
"! d.8.! ! C ; 2 t i t z t e 9 9 t w w t t = X 2 2 ; > * 3 t 5 z f q E E j h 7 & u u f i 9 t i e 9 z , , n ) e 9 q u x J ) } z 6 ",
"! ! v 8.8.t * t i i t t e t t e t t t z n 3 + 5 e w e 2 w Z z 8.:.u >.>. .:.0 & q e p n p B ) i C n , , p n z t e u J o.J i t 9 ",
"! ! ! t.t.t ; C i t t e t y t t t t z x Z 3 * 3 8 w e ; 2 z z 8.7._ 7.e.7.6.q & 2 6 r e e i i e e 9 ; ; 6 9 i 9 0 q r z i e w e ",
"v t.8.8.! t ; w t t w e t i z i z t t z x 3 + 3 4 8 e ; 2 B Z 8.>.k  .5...,.e & # $ = = $ , 9 6 , ; $ $ , , 6 > : - $ $ ; , > = ",
"t t.! ! ! v * 2 w w w t t z z i t t t t z 5 * 8 8 8 t 2 5 1.2.>.5.k _ k k [ y & 1 3 4 4 6 i y.j.<.) z ) ) ) <.y , 8 , = , 9 , = ",
"! t.! ! ! v ; 5 w w e t p p z i t t t w t 5 * 5 w 4 w > 3 :. .N 7...k k k _ j & 1 3 6 4 6 i <.y.r.=.) <.=.<.u.p , B G y ) =.) t ",
"! 8.! ! t.v ; w e e t i p i z z x x t t t 5 * 3 e 5 w 2 5 &.>.[ 7.9... .k S k - 6 7 9 8 6 e O.#.=.=.x O.<.<.q.z o 8 9 8 t ) t e ",
"t ! ! ! 8.B ; 5 t t z z i i t z z z i t z w = 5 w < 0 3 3 ' 2.:.7.e...5.k k k & 1 6 8 6 3 t ) #.<.<.) =.q.O.Z 9 , 9 6 6 i B e 9 ",
"v v t.! ! w 2 * 5 w w 5 w 5 2 w 9 , 9 6 9 , # : : : : & 1 k k k Z Z Z n ! n 5 + 2 ; 2 2 , w ! #.) ) =.) 8.v #.v , w n 5 8 t n 2 ",
"; * 5 5 5 2 ; ; * * 2 5 5 5 2 5 6 o ; = , $ . & & & & : & 1 & 1 5 5 , = = 2 5 5 5 2 5 = * w ! Z n =.q.=.t.! =.t ; 5 Z t w w t 5 ",
"; * w w w 5 t t t 5 t t.t.t.t.t.C , y y x y e D f f j [ k q 4 q z t t w w w n =.v z z w , 5 ! Z x Q =.=.t.<.8.v , 2 w t t 5 5 2 ",
"5 * t ! n v ! n B ; w ! B ! ! ! i $ 9 z i y u i u i y S i q 1 y B n z n n z t w <.t v ! 5 ; 5 w 9 5 , 8 w w w w ; * * ; ; , ; * ",
"5 * t ! v t n t ! ; w ! B ! ! 8.p ; i p t i z 9 r l y i i i 1 q ! n z n ! n z w v t t <.w $ 2 5 8 ; $ , 5 = ; , , 2 5 2 * * 2 2 ",
"w ; w t v v ! v v ; w ! ! ! ! ! 9 $ i y e i z 9 q k y r i k : q t z z z t z t z w v v Z 8 2 t w t , = w t 8 5 w w v v w , 5 5 2 ",
"5 2 w w t t v v w ; w ! ! B ! ! 9 $ y i t y i t i N r q i f : q w z Z Z Z Z v t 8 t w t 3 ; z t t 8 $ w t t t t t z w 5 ; 5 2 = ",
"5 2 w w w t w t w 2 t ! ! v ! t.i , z p i 9 9 i u l q q q q & r w t t t t n t 5 t t 8 v 5 * w t z w ; 5 8 z n z w t t w + * 2 5 ",
"9 $ e 9 9 t e z ! 5 w ! ! ! ! 8.C , 9 z z x t t B t 9 w z w , , w w w w t t t w t t Z v 3 3 t t B t ; t t t z w t w w w * ; 5 2 ",
"9 , e z z t t e t 2 w ! ! ! ! ! t $ ; t t t 9 z t t w w e w 3 , w w w 8 w w w 5 5 5 w w , 5 t t t t ; w t w t w t w w w * , 5 5 ",
"= $ = , , , 9 , 2 2 w t e 5 5 5 , + $ , , , ; ; $ , , ; ; $ $ $ = ; 2 ; = ; ; * * * ; ; + * ; ; ; , + 2 w t w w w w w w * ; 2 2 ",
"; $ $ $ $ $ t 9 t w w t w * 2 w 9 3 8 , , 8 3 $ $ ; , , ; ; $ $ + + + * = ; = + t t w w w 5 5 5 w 5 * = 5 2 , ; ; ; 2 , $ * ; * ",
"8 8 , , , $ ) ) ) t y p t $ 8 P i z z e 9 x z , $ 5 w 9 9 9 5 5 ; ; , 2 5 8 2 = n C n n Z C v v C v 5 2 w 5 , , * ; 2 5 5 5 8 8 ",
"5 9 9 e , $ e e 9 9 9 t z $ 5 C t e 9 e w 9 e , $ 8 9 5 9 e 9 5 w 8 5 w t t 5 * w t t t v t t t t t 5 2 ! =.Z Z w t Z n =.#.8.<.",
"6 9 e 9 , $ 9 9 9 i y p =.$ 5 t t 9 9 t 9 9 e ; $ 5 9 8 5 w w 8 w 5 5 5 5 8 , + w n v z n z w v t t w 2 ! <.Z ! ! =.8.! t.! =.=.",
"9 , 9 6 , $ y x 9 x p p =.= 9 t 5 t 9 w 8 t n ; + , 9 5 5 w w w 5 w 5 5 5 w 2 * w t z t z w w z t z 8 * n =.Z =.=.<.8.v #.n ! ! "
};
