/* XPM */
static char *_26687853f8742919bf3d0d84d0019da6IBHSfTuAxobg1QY[] = {
/* columns rows colors chars-per-pixel */
"64 64 101 2 ",
"   c #0C1B20",
".  c #161E21",
"X  c #1C242A",
"o  c #1F292A",
"O  c #1D2730",
"+  c #1E2B32",
"@  c #20272D",
"#  c #222A2E",
"$  c #282E2E",
"%  c #232732",
"&  c #252D34",
"*  c #292E34",
"=  c #262D39",
"-  c #282F39",
";  c #253134",
":  c #2A3336",
">  c #273239",
",  c #2C353A",
"<  c #2E393D",
"1  c #303636",
"2  c #313A37",
"3  c #32363D",
"4  c #333B3D",
"5  c #3A3E3E",
"6  c #37403F",
"7  c #2F3540",
"8  c #2E3941",
"9  c #333741",
"0  c #353C42",
"q  c #393E43",
"w  c #363F49",
"e  c #3B3E49",
"r  c #364045",
"t  c #3B4245",
"y  c #3E4847",
"u  c #364249",
"i  c #3D444B",
"p  c #3E494D",
"a  c #374051",
"s  c #3E4551",
"d  c #3E4A51",
"f  c #404547",
"g  c #41464D",
"h  c #434A4D",
"j  c #484C4F",
"k  c #424652",
"l  c #444C53",
"z  c #494E54",
"x  c #464E59",
"c  c #494E59",
"v  c #455155",
"b  c #4A5255",
"n  c #46515A",
"m  c #4C535B",
"M  c #47595D",
"N  c #4E595D",
"B  c #51565D",
"V  c #525A5E",
"C  c #585E5F",
"Z  c #4E5661",
"A  c #4E5A62",
"S  c #515662",
"D  c #535B63",
"F  c #595E64",
"G  c #555E69",
"H  c #595E69",
"J  c #4F6165",
"K  c #546166",
"L  c #5A6165",
"P  c #55616B",
"I  c #5B636B",
"U  c #5D696D",
"Y  c #566270",
"T  c #5C6471",
"R  c #5E6A72",
"E  c #60666E",
"W  c #636A6D",
"Q  c #606773",
"!  c #636B73",
"~  c #686F77",
"^  c #656D7B",
"/  c #686E7B",
"(  c #637275",
")  c #6B7377",
"_  c #667479",
"`  c #6C747B",
"'  c #69787B",
"]  c #707B7F",
"[  c #6C7280",
"{  c #6F7C82",
"}  c #707781",
"|  c #737B82",
" . c #787F87",
".. c #728083",
"X. c #7B8185",
"o. c #7C838A",
"O. c #7E8C92",
"+. c #80888B",
"@. c #838C95",
"#. c #858D98",
"$. c #889198",
/* pixels */
"V b b v v z y 4 p p p p p d n M v h y p v h p q t i 9 3 i b B B B S B B B B z g : c G D G Y Y S Y G G Z N 0 < p p l x M S D D Z ",
"h g h j V N y , t p d d v v n v v d d v y r w r g t 3 1 z D V B H F B B B B z e < N T I Y T Y Y Y Z G A A r < p t p v b m m m Z ",
"b v y y p p 0 + u i l d d d d d u u u y y r r y q q , * q h x v j j g f h h q : , B R U T T Y G Y A G Z N , > r p l b n m n c Z ",
"# & & > , 4 < > < 8 r u u 8 8 < 6 ; ; 6 0 r 0 < 8 9 * X @ : , 4 * * % # * : # . : M U I H G G G P A A Z M < > < & & & & % % % = ",
": p D I K K G A A Y J Y Y P J J U U U U ( ( ( U I N 4 ; 0 p t 0 f f q 5 q 6 1 $ ; b L I H A A G G A P D P p p y i t t t a i w w ",
"p S R I N v x n A M Y Y P P P Y U ( ....] ] ] ' ( U v r h N b p v v h h h v h g 1 b L K H H G P P P I D K l y v l p p p l l k e ",
"w s x d u i d d d n n n n n Z d M J J ( ( ' ( U b M d < , < r p 4 5 5 5 6 6 t y < v C K G G G P Y P P A D p r y 4 4 9 9 0 e w 9 ",
"w u d x n n n n n n n M n n d M M d d M ( ' J y b v p , < r r < t q 6 6 2 6 6 y 2 v N N D D A G G A F M V t 6 r t p g g i a e e ",
"w p l x n n x x n M Z Z n n M A N M J K M y y d v d r > < r r 4 4 4 4 5 6 6 r 6 6 y v v m N A A A S B M b 4 y t r t f h g i g s ",
"w a d l x x x x n M Z Z A J n [ J J V v d d d v M d r , 8 r < 4 4 5 4 4 2 6 6 6 o , 2 < w w 0 w 9 w r w r > q 4 6 t t t e q e e ",
"w t i p p x c m n n n n n M n n V K M p y d v d v v q , r r < 0 q q 5 5 4 4 4 4 > y y t u u a a i i t t y 4 y p t 5 q 4 q q 9 e ",
"0 e p p d l z m A Z Z Z Y Z Y A J M v u u d d y p y < , < < 8 0 q q 5 4 4 6 < 4 4 l n v x s a x d d p p g < t y t t 5 q e q e q ",
"q t f z z z z c c z c m Z A A A N v p l v k p g y r , : 4 9 9 q q 4 q 4 4 4 4 4 , t d s s w w a w u q w g 2 y t f q 5 9 f f g e ",
"9 e z z z z z z m m c m n n x x p r u l v p t p p r < : q q 4 q q q 9 4 9 4 4 0 , p x s d a w s u t i i h 4 h y 5 q 9 5 9 e f g ",
"3 5 f j z j h f m B S m c x a x p t p p p p i i i q , , 9 9 3 q 9 q 9 q q 0 4 9 < t d s k a w a i t t i g 1 q 4 5 q q q q q e e ",
"1 3 9 f e f f t 3 q e e e w w w l b l g i g g i q 3 * * 0 9 9 e q w 9 9 9 < 9 4 8 d l l x x s s e i i p v 4 f 4 q q f q q e e g ",
"- % * 9 - * 3 3 & : * & & - - - % > , 6 o < 0 > & > : , , - 7 8 7 w 8 < < 9 : o 3 s k k k c k g i u l p v < + 6 > r u r > 8 8 8 ",
"S B S S B c e * l z m x l z x x m v h y > h N N F K D A Z D I Q R T R R U F N M 9 f j k c k k s e i v p M u u M M J J Y J A Z x ",
"/ [ | [ ` | E q m V F D S D S Z V b v b r b D V S N N b x n A H P D G I F n v n 9 g j k k k e s t t x h N d A ( ..( R R R T T T ",
"S S S S m H N 3 z m N m m m c x t p h b < p l y d l l k s s s d l d d x x t t p 9 h k k c k s s s h l v N d J ( J J d d l x N A ",
"H D N x k m m f m V V m m m m c v h h v < t k h k b M B B B z z Z x x l v b b p 3 g k k l k g g s h z b N p D N m N D H H H H H ",
"S c c m g k l p F L H S Z S S Z V V b m 9 t p p h k z c m B V B n Z x s h b b p 1 f h h l l k k h k h B Z t D l p x m S Z N S D ",
"x k c x k l l f F I P F S D S Z m b V C q t t w t f h l c B B B M n n k l l k y : y h h k l p l k z z b x 0 A k c m c c c S S F ",
"s s k k p l h w F I E H G G S Z V b m V 0 q i p e i l z B B B j z x v n l y p h : t k p l x k x l z z B k : N s l x c m S m c k ",
"a a k k g p i t Z D I E T H D D V B D D e j j j e e 5 f B B B B l c z z z b h t , < t p v h l l z z b h d < n A l l n m m c k g ",
"k k k i p l g q z m S F H S S S B V C F f j z j j f f j j z j j m m m z l h y 4 2 y v v h v x p z z z h m u v d l l x n c z z k ",
"a l k p k v p 4 l m V S G D S S B F V F e f j j j f e 5 j j z j z z c z v v y q 2 p V N v b n k z z z z m r d d p p i a e s s e ",
"i s k l l k 9 , b N F K H H H G F V V V 5 e f f f f q f j j z B z c B z b b h y $ 6 v v h v v l z z M l i > d J d d d i g s k k ",
"l s k Z c s w t m V D D D H G G S B B C 5 5 f e g f f f f j j z c c B z b j h f 2 6 y p v p d l z m m k u + d d Z d d s e s s k ",
"7 = = 7 3 = # % b B F D D H H D F B B C 5 e f j j j j f 5 5 f f f g g f f t t 5 $ o + , > > > , : : : > ;   ; < > > + + O % + % ",
"S G S S P F h 3 z N D D D I H D F B B F e f j c j j j f f 5 5 5 q q e 3 4 5 4 4 y j b v v y l l p y p p d > M J P J A A G D H D ",
" .#.#.#.$.$.! q h m B B D F H D F B B F 5 e f j j j j j j j f j k z h t 4 6 r 4 v L U C M N S N A K L D J d _ O.O.O.O.O.O.@.@.@.",
"Y [ } _ U U N : j b M V J V D C C z C C j f j z B z z j j f h j z z g k g y t 4 t h v l z l x c c x x m m < k N F F S D V S D D ",
"G R R P F K b ; y h b V V V C D C C C B q f j h B B B c z z k h k f p g h v v h t l v h l l l c m c m m m < x S S A D D D D D D ",
"Y Y P A Z K M : 6 y v b b C D C V C F z 5 f m j j j z z j k g e l l g i y g y t p h l g l l x c c c V N m 3 z D N S D F F D V V ",
"Y Y G m N K N < y y j b b N V V f f j f : q f t g g f s f f e e 0 q w t y g f y t h g i x c k x l z m m m 9 m H V S D K F F S B ",
"Y G Z Z A K N 4 6 6 6 6 t t t t q : 4 4 # $ 4 2 3 3 * * , , , - * , : , 3 4 , $ q p p i k c c c l x c x l < c D N B D F H F F D ",
"Y G A A D K b 2 y y p y h h l z C z b b h b U W ~ W W W ! ~ ~ ~ ` ` ) ! W W I V w k g i k x k c l x x g i , l B c N S D K P I P ",
"Y G Y G K L M 6 , 2 6 6 9 e q q r 4 t q < h D V S S B S V D S A c N m b m K L C w k x w k k k k x x p u i , x N m S D F I I I I ",
"P G G A D C v < : , < < e q f e r y h r < y m p m z z z M n v k l l k h h V K V e x x k k w a a k g e q e 3 m S B D F F I I P F ",
"Y H H P D N g ; * 1 3 q e f g g y v i t w v x h k x m N N Z Z m c m x k p g m F t g s k c c a k l k k i w q k H B D H I P I E E ",
"R I P I I D v : * 1 3 5 e f e k y h p t 0 v v l z c B S D F D Z D S m x k g h l q i p k c k k x s i i i q w k F I I U E E ! ! ~ ",
"D x x Z V m y # 1 3 5 9 q e e e i k h p 4 z M m c m c c m m m Z S S N m N m b b < t s k x a e x i i i w 4 < t m m m m m m m B D ",
"u 0 w t p f 4 $ 3 3 9 5 q e e g e f h h 3 z D D F S c k i a l l l l c S D D B m % w d k c c a k k s p t w 9 w p q w 9 9 9 0 q e ",
"l s l l l b b g 3 3 5 5 q q e k e f k j 3 c I F H S c j s k h a e s x m x l h g k F ! Q Q T Y Y H D S S S N b c x x l x x x l l ",
"8 7 0 9 : 4 t 3 9 9 9 9 9 q e e e f k z 9 c E D S B c c c z k i i s k x g p i i 9 x S m Z c x s l p i p s h t w w q q u t e w 9 ",
"i u i t q y y 4 9 5 9 9 9 9 e f e e k z 3 z F B z k k z c c l p a a k k l l z x < h l a s k s e c c x l k k l l g h h h l k p i ",
"s e i t y g f 3 5 9 5 9 9 9 e e g 5 j z * j F k z k g k k k h v l k i g x m m z w k l p k c Z Z m m m l i p k l x k l l l x k g ",
"s s s i p p q 3 1 4 5 5 5 5 q 5 5 4 1 1 1 4 6 j 6 6 h v y y y r p p t p h M b g 3 e k z c c c B G Z c c x c x x c x x x l z z m ",
"l d s s f g y 4 $ 1 2 2 1 5 5 1 5 2 5 1 1 $ 1 $ 6 6 6 6 6 6 6 6 , < 4 4 t y 0 & 3 g z z B B B S S G Z Z c c x x x x x x l l l x ",
"x x x d b v g t C L W W W W E L C C F F V b j h h 6 6 6 j b N N b M b M N D M h , i k j B B B C S G Z c x l k x k l k k k k l l ",
"x x x n m b v y B C C C C C B b j j j j h h h h M b h v W ' W U L K V m V K I I 9 z B F E E E E S S S c l p h k k k k s k h k h ",
"s l x m m m g r j B B z j j j j h f k j l l c c b v r p U W D b v x k i t s M F 9 l N C L L C C Z Z D m b l l l p h k s h h l l ",
"d x x n m c h 4 j j j f j j j j z k z z m b x l v b 8 , N U n v n x n n d s l Z 3 h l b B z j j c Z b B b b l l k l k k l d s l ",
"x n x l x l p 4 j j j k g j z z z z c B N b x k v N t 8 D U A G Z Z Z Z m x x m q h v j z z f j l h h h v j h h p p s p s s s l ",
"x k s i t p q , f f f f f k j j c c c c m m c x 6 v y < N P m D Z Z x m m x x n : w t 4 5 f 5 f t 6 y y h g y y t t t e i i a i ",
"Z c x c z B g * f q e 5 f f j c c c S S S c c c l x w = Z I P G Z Z Z Z Z x x x . e k t f f f k 6 f g 6 f : g h g k k l l l l a ",
"` / _ ! W ` W j f f g g k k k c c c c S c c c c s l w > H R T I G Y G G Z x n x z Q  . .+.o.X.X.o.X.X.X.+.U W ~ | X.o. .} | | } ",
"m S S c B E F q j f j g k k j c B B c c k c c c s l w > D R R T Y Y G Z Z n n x c Q [ / ~ ) ) ) ) W E ) X.b z m N P F m h x c m ",
"x Z Z z z S B 5 g g g g k k c c S S m c c k c c d l w = Z P P D A A Z Z Z Z x x e F E S S F F F U L I ~ ] l x m m H F m k c S m ",
"G x x x k j e * e f k k k k z c z z c k x x x c x n w = m D A Z A Z Z Z S Z x d 9 c Q T Q H H H L Q ! Q H 9 i c S D B x z D F F ",
"G Z Z D B c k 5 k f k j k k k k s k s k x m m m n Z i = A P D A D D G G S Z x l 9 c H H S H S H I _ ` Q G 9 a m c x p p x N S S ",
"x l x x c z e 9 j k k k k k k c k g g k l m m b v n u = N D D A D G G A Z n x x k H T S S H H T Y T Q ^ Q e a S m l i s x m m m ",
"Z Z S n z c j 3 f j k k c c c c c z z l z c m m x v 0 % b D A N N A Z n x l x x 9 c H S S S c S T G H ^ / i a Z Z k p k l k h l "
};
