/* XPM */
static char *cf93cf7c65e54ca1853ce2022a434dfcR1T2N3y38XMpeF6Q[] = {
/* columns rows colors chars-per-pixel */
"64 64 145 2 ",
"   c #161D25",
".  c #1B1D22",
"X  c #1D2227",
"o  c #1E252A",
"O  c #1F282D",
"+  c #22262A",
"@  c #24292D",
"#  c #292A2F",
"$  c #252D33",
"%  c #282E33",
"&  c #273036",
"*  c #2C3236",
"=  c #273139",
"-  c #2C343B",
";  c #2F383E",
":  c #303437",
">  c #31363B",
",  c #333A3E",
"<  c #383C3F",
"1  c #2C3741",
"2  c #2E3A43",
"3  c #2F3D48",
"4  c #343D44",
"5  c #393E44",
"6  c #343F48",
"7  c #2F404A",
"8  c #364046",
"9  c #3A4146",
"0  c #36424B",
"q  c #3A434A",
"w  c #3B424A",
"e  c #394249",
"r  c #3C4349",
"t  c #394448",
"y  c #39444A",
"u  c #3B444B",
"i  c #3A454B",
"p  c #3B464A",
"a  c #3D4548",
"s  c #3E4648",
"d  c #3E4649",
"f  c #3D444A",
"g  c #3C454A",
"h  c #3F474A",
"j  c #38424C",
"k  c #39434C",
"l  c #3A434C",
"z  c #38454D",
"x  c #3A444D",
"c  c #3B444D",
"v  c #3B464C",
"b  c #38454E",
"n  c #3B454E",
"m  c #39464E",
"M  c #39464F",
"N  c #3A474F",
"B  c #3D444C",
"V  c #3C454C",
"C  c #3D464D",
"Z  c #3F464C",
"A  c #3E474C",
"S  c #3C454E",
"D  c #3C464F",
"F  c #3E474E",
"G  c #3A444C",
"H  c #3F484D",
"J  c #3D484E",
"K  c #3F484F",
"L  c #3D484E",
"P  c #374550",
"I  c #364751",
"U  c #394750",
"Y  c #384651",
"T  c #394752",
"R  c #3A4652",
"E  c #3D4750",
"W  c #3B4750",
"Q  c #374852",
"!  c #3B4850",
"~  c #3B4851",
"^  c #3D4A52",
"/  c #3D4A53",
"(  c #3E4B53",
")  c #3D4952",
"_  c #424649",
"`  c #41464A",
"'  c #42474A",
"]  c #42474B",
"[  c #41464B",
"{  c #41484E",
"}  c #40494E",
"|  c #42494F",
" . c #45494C",
".. c #45484D",
"X. c #454A4D",
"o. c #464A4D",
"O. c #454A4E",
"+. c #424A4E",
"@. c #4A4E4F",
"#. c #404751",
"$. c #414A51",
"%. c #404B51",
"&. c #424B50",
"*. c #404952",
"=. c #424B52",
"-. c #444B51",
";. c #464B51",
":. c #434C51",
">. c #414C52",
",. c #434C53",
"<. c #424D53",
"1. c #414B54",
"2. c #424B54",
"3. c #424C55",
"4. c #434C55",
"5. c #424C56",
"6. c #434D56",
"7. c #414E57",
"8. c #464D55",
"9. c #444F55",
"0. c #444E57",
"q. c #424C53",
"w. c #494F54",
"e. c #424F58",
"r. c #434F5B",
"t. c #454F58",
"y. c #444F58",
"u. c #455056",
"i. c #465056",
"p. c #4E5255",
"a. c #4B5053",
"s. c #435058",
"d. c #44515A",
"f. c #46505A",
"g. c #47515A",
"h. c #455159",
"j. c #495259",
"k. c #48525B",
"l. c #49525B",
"z. c #4A545E",
"x. c #4A545A",
"c. c #51575D",
"v. c #4A5760",
"b. c #4B5861",
"n. c #525C63",
/* pixels */
"p.o.o.@.< ' : : x.i.;.o._ u W W ~ ( ( ^ %.%.} a n e V ;.% V V e V } J *.%.1.( W n 6 6 R 6 I 6 I 6 6 6 P b e 3 8 7 ( x b b 8 t = ",
"_ * : : , : < o.%.h r _ 5 e 0 e 0 e x x x a u 8 6 e e } - V V n V a u u x x b 0 E 6 T T P 6 6 P Q T P W 0 2 3 e e s.~ b ~ v v * ",
" .> _ % < X.: 5 V 8 8 5 4 4 6 0 3 0 0 4 e 6 4 4 6 e 8 r - { e n e x u u 6 n n 0 0 6 0 0 3 6 6 I P P W 0 3 2 3 b 4 e.x b L v v * ",
"_ < * > , , , 5 V e 8 r 8 6 e 6 0 0 0 0 e e e 8 6 e 5 8 4 #.5 e 6 e x x V E x x 0 6 P I 3 6 I 6 0 6 0 3 3 3 e 0 8 s.W b L L v - ",
"_ , : , : - s H V e e e r e u e t 0 e 6 e e 8 8 e e 4 8 4 { 6 6 6 6 n B n n e e e 4 P P 3 I 0 0 0 6 3 3 3 8 e e 4 1.0 e m x u - ",
"s @ s & : s , , n 6 6 e e e u u 8 8 8 0 e e 4 e 6 5 4 5 4 V 4 0 0 6 n 6 6 6 0 6 e 2 6 0 6 I 3 6 6 0 0 4 4 6 e b , *.x e t x a & ",
"h ; : : t , ; s W 6 e e e t t e 8 8 4 e e 4 6 5 6 6 e 5 , e 5 e n e 6 6 6 6 6 6 e 1 3 0 I 0 6 0 3 0 0 0 8 8 t t ; %.V e e e e & ",
"; s 5 < , t $ t E 6 6 6 6 8 8 4 5 5 5 5 8 4 5 5 e 4 e 5 > 4 4 6 4 4 4 2 3 3 I 3 0 = 1 3 2 3 3 3 6 0 3 6 8 u 8 = @ 8 4 , 4 4 1 + ",
"= = = & $ $ o J E 0 0 6 e e 4 4 5 5 6 6 5 6 6 6 e u 4 a & * - - - - ; ; 4 ; ; 4 1 4 1 1 1 1 1 1 4 = X * & & & $ - = & & = & & & ",
"e.u.s.L h J - J P e e 6 e e e e 5 5 B 5 5 r 5 r e u 4 8 ; %.f.%.^ *.%.%.1.1.1.t.f.k.t.e.r.r.r.r.k.1.2 a 9 J ^ ( u.,.( ( >.>.%.i.",
"^ ^ ~ 0 x u & 8 b e 0 6 8 e 4 e 5 5 5 5 5 6 5 6 8 e e 4 - %.^ e V V V n x x W W ^ ^ ^ W T r./ Q ^ b ; L 9 t I m x 0 0 8 t t z m ",
"W 0 0 m ~ ~ ; ^ b 6 0 e 8 e 8 8 5 [ [ 5 _ 5 B r 8 4 a 8 4 9.x ~ E W E V W W W ^ E W b b Q Q Q Q P 0 2 s.L u 0 0 b 0 I I Q Q L Q ",
"0 0 3 P ~ b 1 8 ~ e u u a r 5 8 5 5 5 5 5 5 e e t 0 e 4 - ( t ~ x W W ~ ~ ~ ^ E V x 0 b P P Q Q P P 3 1.n 0 0 0 b b P x Q / / ( ",
"0 b T T T x - & 2 - - - - - * > - - > > > - > - - - ; $ $ f.~ ~ P W T ( *.^ V V V x W W ~ T T T P ~ 0 s.W 0 b b 0 n n n m ~ ^ ( ",
"3 ~ T T b x - > 8 2 4 8 < , , r 5 5 5 8 B e r V a V x 4 2 f.P 0 T Q T W E V r r V a W V x e W E 0 x 3 s.W 0 0 0 n n e 0 ^ 1.^ E ",
"8 ~ T ( b 4 4 _ V 8 a ;.a 5 9 @.B _ { V { { J *.J ^ J V 4 e.P / / Q T E n r r r x V V E W n B E W W 6 1.B 0 0 W 0 e b W ^ ( ~ e ",
"3 ^ T e e e - e r 8 4 0 0 4 , a r 8 e e e x V ^ _ 6 r V 2 f.P T ( R P P x x a a r e n n W ( x V x ~ 3 s.b x b P 0 t ~ ~ / I 8 2 ",
"L ( x 6 e u - 5 { 6 0 0 e 4 4 a B a e e u u B E 6 { { 5 - 1.W W R E #.E V V V r { r V W x n 6 E x 8 - 1.x ~ b 0 b b ~ ( ~ t 8 7 ",
"( ~ e 6 V V - 5 B B 6 P 6 1 3 V n 0 n t u B B B e V x V 2 0 E 5.B 6 6 B V _ _ _ r _ { 5 e E V #.} v ; s.u x x ~ b t ~ ( ~ 0 0 ~ ",
"~ b 6 0 V a - 5 [ r r 5 0 2 8 ^ 0 x x x J V B r ^ x e 5 $ $ = = * * * % - * % : > * * $ $ - $ $ @ @ @ i.*.J 0 W b b ~ ( L 0 m ( ",
"6 4 6 B e 8 - 5 5 5 6 6 6 4 4 E 0 P 0 n x u e 8 6 x V e 4 V %.V #.*.{ V _ a a 9 5 : , r { { a ;.} t - x.} J 8 e m ( ( ~ 0 4 8 t ",
"0 0 V V e r : r [ 5 5 6 6 4 6 ^ 0 0 W n x u r r V } V V 4 *.%.x E V a a r _ 9 4 _ < 9  ._ r 5 V a 8 , c.} u 4 4 b ( ( b 7 7 0 7 ",
"n n V V B a : > 5 [ 5 5 4 > 4 *.E W P W B B V V V e 8 u , } 4 e 8 8 8 4 5 5 5 < < , 9 r 5 8 8 5 8 5 - 8.8 4 0 ( m ( I t 7 0 t 0 ",
"0 6 n n r { * @ : : - * % @ % 5 4 6 6 4 2 1 4 4 4 , , , & %.e 8 r 5 8 r 5 5 9 5 _ > < r 8 8 5 4 8 4 & 8.x b e I ( ( m 8 8 0 0 0 ",
"n 0 0 e 8 r * , #.8 e 5 4 e 4 4 4 4 e 4 $ % s < < , t s * a u 8 8 8 e 4 e e 8 5 9 > 9 < 9 9 5 5 5 < - u.b ~ ( ( ( s.u 2 7 t t b ",
"e 0 0 e e r > 5 8.{ *.V x V V V E n 0 e 9 < _ , : - : < 8 %.8 8 e 4 6 6 4 4 5 6 < : < _ 9 9 5 8 5 4 , x.x / ( s.( L 7 2 8 z b 0 ",
"b b t e e e > 5 e 4 4 4 4 4 1 4 e 6 6 0 t , < ; 9 o.p.t , J 8 7 e 0 6 6 6 5 5 5 9 : _ 9 9 5 9 5 r 5 ; x.^ ^ ( ( ( 0 2 7 0 m b 0 ",
"~ x b t e n - 4 u 4 4 4 4 4 4 4 4 0 3 2 ; * 4 8 s * < , ; 0 m I 0 6 0 6 5 4 5 5 9 * < 9 < 9 5 4 5 5 , z.^ ^ ~ m 0 2 2 I b t L t ",
"x x x t b u - e 8 2 2 4 2 4 2 2 4 0 6 2 4 > 8 u o., 8 , , 7 0 7 I 7 0 4 4 4 5 5 < # 9 9 5 5 r 8 _ 5 > z./ / 0 8 2 1 0 ~ t u J L ",
"x x x b m x - 4 t 4 6 6 4 e 4 6 4 0 6 2 4 > < ; : 5 s , ; J 0 I 6 0 6 6 e 4 5 4 9 # 9 _ 9 r r r _ 4 - k.m b 7 3 8 0 b x b L u 8 ",
"^ V x 0 b b - 0 e 2 6 4 2 4 2 4 4 0 e 4 4 : < 4 t t 8 t t ( 7 7 I 6 0 6 8 8 4 8 9 # 5 _ 5 5 r 5 9 4 , f.0 0 7 t m I L t u u t 8 ",
"x e n e t b 1 b 0 4 6 4 6 6 6 4 u e 4 4 , : _ _ u.p J H - t 7 8 6 6 6 4 4 4 4 4 , @ < r < 5 8 5 5 4 - u.8 7 b I t / L u v t h ,.",
"8 e 8 0 n B * 5 b 6 2 4 8 2 4 u x e 4 4 > + - - > > ; - * $ $ & $ $ $ @ $ @ @ @ # + < 9 < _ 5 5 r 5 - 4.6 n e 0 0 0 L b b u a V ",
"8 e 8 0 0 6 1 5 e 4 2 3 4 2 8 e e 1 > , 5 - 9.k.9.9.s.( e.e.( ( r.r.s.( %.%.@.i. ., 5 9 < 9 5 r _ 4 - 9.E 0 e 0 W ~ ^ x 8 t a _ ",
"r 8 0 e e 0 - 4 6 4 2 4 4 8 4 8 e 2 4 4 4 - d.( x b 0 0 0 P b 0 W I m m z L L L o.4 5 { 5 { ;.{ 8 , = 9.W 0 0 0 x L L t 8 t a } ",
"r e x x 0 P > 4 4 4 4 4 4 8 8 4 4 - 4 5 4 - ( 0 b t b b b b P 0 b 0 t 0 z Q L / 5 & , } _ ..o.r < 8 , *.0 W P P e b L b u u a _ ",
"5 6 e x B W 4 4 4 5 4 4 4 5 4 4 4 > 4 4 2 2 s.0 0 n n 0 n e 0 n L x b L v b t b t $ e J 8 8 8 , 8 9 * X.t L e 0 0 0 m 0 t 0 0 8 ",
"e e e n B 5 : 5 6 5 5 4 4 5 4 4 4 4 5 4 3 1 ( e 0 x B P u x n x x x x x L b 0 0 8 & e u 9 t , 4 5 , @ _ t v e V b m I t 0 b b L ",
"5 6 e 6 5 5 # _ 5 5 5 4 4 4 4 4 1 4 4 4 4 - ( 0 b W W W x ~ E E u L m m L I b b 8 @ - 4 , 5 , < < > + , t 4 9 t 8 8 8 8 9 t 8 8 ",
"$ % - = : % + 9 < < , 5 5 4 , 4 6 e 4 4 0 - ( ~ ~ m P x m L x x L L m m b b 7 0 h = + $ @ $ % % # # + + * + & $ @ $ # % @ # @ @ ",
"j.4.k.9.*.{ 5 _ 5 < < < , 5 4 , 5 6 3 6 2 4 %.~ L Q N L L L x V x v u u b t 0 m b - W ( ~ ( x V V E { -.%.%.L t J J m I L ^ L - ",
"9.{ V B a { 5 5 r 5 < 5 4 4 4 4 5 n 6 0 4 - ( b N Q N L L L ^ V u x x t e b 0 b b - ~ ( x ^ x ^ V V { *.} L z 0 u L m m m ( x - ",
"4.e r e r _ , 5 r , , 4 4 - 4 5 4 6 2 6 ; - J 8 Q Q ~ ~ m L ~ ^ u L u v t b 0 0 e - x ~ 0 x n ^ V *.J { V a t z t u m m V J u - ",
"w.r B e e r , 9 e 4 4 8 4 4 4 6 4 6 2 6 , , 1.x m m L L m m b x u u u u t b t t e = u ~ e n n W V V J V e e 0 m t x t m x a 8 & ",
";.e a e e e 4 5 5 4 4 4 2 4 e 8 4 3 4 4 4 > *.b 0 m Q ~ L x b L u L x u t t t t u - J L b b x x J x u u t t 0 t t u u x x u 8 & ",
"8.r n e { E 5 5 8 8 4 4 4 4 0 2 4 8 4 4 > * x 6 0 I m ~ I I m ~ L x b e 0 t 8 0 x = J J m t b x E x b t 0 b b b t u t x u u 9 > ",
"} 5 r e V V , > 8 4 4 4 4 4 4 4 ; 8 4 4 > * ^ P 0 0 0 0 b m I ~ W x b 0 0 0 0 0 8 - *.L m b b b x n b t b b b 0 t b t x t t 9 > ",
"r 4 e 4 4 4 & = - & % - - % - - * - * & % $ ^ P P 0 0 0 0 b L ~ I b b 0 0 0 0 0 8 - } u m b L b n b b b b 0 t b L t u a t s 9 > ",
"# : > 4 6 1 - 7 = 8 e 2 2 8 4 ; ; ; * $ * * s.8 t 0 0 0 0 3 b I 6 n e 6 4 e e u t ; v v z t z z b b b 0 0 x ^ ^ #.V n n e r r : ",
"c.x.9.1.v.b.d.d.s.( ^ ( x.n.c.*.( ( ( h a < s.b 0 b P 7 0 0 b P n e e e e 8 e x t ; L L Q v Q m e b b t e x x E #.E W V e V _ , ",
";.*.E E ( ( b 0 m 0 7 0 ( s.( x t 0 z z t - ^ t m 0 b b 0 b b W e e 8 8 e e a r t ; v m z z 0 I x x x b b x ^ ~ E E x E r r r : ",
";.*.^ 1.~ b 7 0 8 0 b m ~ W b t I t t m t - *.x I I 0 b b b 0 b r r 8 8 8 8 8 8 t ; L / L L 0 I 0 0 b e b t b 0 n 0 0 x e r 5 : ",
"n.*.x ~ ~ b 0 W ~ x b W ~ T ~ 0 0 7 0 0 e - ~ 0 z 0 I 0 z 0 e n { 5 5 r 8 r 8 8 e - u ^ x b 0 I b m b b b m m m 0 t x V a { r : ",
"n.V e ^ x 0 ~ s.1.^ x L ( ( ( ~ 0 0 I m b 3 ( m t 0 7 t 0 t n ^ { r r 5 8 e r a ^ 4 8 *.L a t b m m W n t b b e t u u V e r 5 # ",
";.e r %.~ L ^ 1.^ J J x n E ~ ^ n e 0 0 e - ( 0 t t t t t e x 1...r 6 r u e x V e = $ 4 - - > - 2 4 4 > 1 ; ; , ; 4 4 4 > , , + ",
"9.r 5 V ( %.^ x e V V u x ^ x 0 x b 0 b 0 2 ( m I 7 I I b b ^ f.{ r 5 6 e e e V V - O - - - , - > > - % - - * & O $ - - * : > # ",
"o.{ 8 a u 8 4 ^ a x e 8 e 0 8 4 6 ~ 6 W e 2 1.x b 0 b e t x %.1.e V 5 e 4 u e x e - V ( 1.1.5.5.5.5.( 5.( s.f.J 4 n.( ( T 1.i.< ",
";.a 5 5 8 4 4 t V e 8 8 0 e e b W W 0 P e 4 ^ 0 b e n n e ^ %.*.e B 6 e 4 u 0 t J - W x 0 e 6 6 n 0 0 0 0 t u 4 - u.b e e x t * ",
"9.r u J a t 8 t u u 8 8 e n b b 0 3 P 0 4 2 0 b e e n 6 e ^ *.V e 6 6 n 0 t b m e - n 0 0 6 0 n 6 6 0 6 0 0 t 4 - u.x b e a a * ",
";.r u J u e t 8 x x x u x x b b 6 6 P 0 e - x x n 0 n e n ^ ^ b B 6 4 6 0 b L ~ E - W W 0 0 6 0 n e e 6 n 0 t 4 - 1.e n x 8 a > ",
"9.{ r V e t u u x x h a e n 0 6 B n 6 P a & *.e 0 e 0 0 0 W x 0 e 6 6 4 6 t b b B - n P 0 0 0 e 6 6 n 6 t t 0 3 - ( 6 P x e r > ",
"[ 5 r r t 8 u u x J a 8 8 8 0 0 6 E 6 T 8 * ;.a x e t t n E x e 6 6 e 6 x ~ J I n = 0 0 6 P b P 6 n 6 n z z 4 0 2 1.e P ^ x a > ",
", 5 5 _ h t 8 t e e 8 < , 8 e b 4 W n e : # 5 r r 5 e e 6 5 5 6 5 r 4 - x x x J n 1 T W I 6 3 0 0 0 e 6 t 8 2 3 ; 1.0 0 b n a - ",
"+ @ @ @ $ @ o @ $ & & @ $ & ; 1 1 2 - $ . . @ + > * * - - * > * - > $   $ & $ & * $ P Q 6 I 0 0 7 b e e z 8 7 8 3 s.0 b 0 t a - "
};
